<svg xmlns="http://www.w3.org/2000/svg" viewBox="0 0 256 262" width="24" height="24">
  <path fill="#4285F4" d="M255.9 133.5c0-9.2-.7-18.1-2.2-26.7H130v50.5h70c-3 16.5-12.1 30.5-25.8 39.9l41.7 32.5c24.3-22.4 38.4-56 38.4-96.2z"/>
  <path fill="#34A853" d="M130 262c34.8 0 64-11.5 85.3-31.2l-41.7-32.5c-11.6 7.8-26.4 12.4-43.6 12.4-33.5 0-61.9-22.6-72.1-52.9L12.5 178.1C35.9 214.7 79.2 262 130 262z"/>
  <path fill="#FBBC04" d="M57.9 152.8c-2.5-7.3-4-15.1-4-23.1s1.5-15.8 4-23.1l-42.6-33C6.7 89.5 0 110.9 0 129.7s6.7 40.2 15.3 56.4l42.6-33.3z"/>
  <path fill="#EA4335" d="M130 52.4c18.9 0 35.8 6.5 49.2 19.3l37-36.5C196.6 15 165 0 130 0 79.2 0 35.9 47.3 15.3 112.9l42.6 33.3C68.1 75 96.4 52.4 130 52.4z"/>
  <path fill="none" d="M0 0h256v262H0z"/>
</svg>
